<svg xmlns="http://www.w3.org/2000/svg" width="165.283" height="70.114" viewBox="0 0 165.283 70.114">
  <g id="Group_10" data-name="Group 10" transform="translate(-670.514 -393.333)">
    <path id="Path_9" data-name="Path 9" d="M345,265.382a27.469,27.469,0,0,1,0-49.673c-12.889,4.026-21.961,13.629-21.961,24.837S332.115,261.357,345,265.382Z" transform="translate(395.439 179.622)" fill="#fff"/>
    <path id="Path_10" data-name="Path 10" d="M369.035,263.645c-11.736,0-21.25-11.325-21.25-25.294s9.513-25.295,21.25-25.295,21.25,11.325,21.25,25.295-9.513,25.294-21.25,25.294m0-51.942a26.648,26.648,0,1,0,26.819,26.648A26.734,26.734,0,0,0,369.035,211.7" transform="translate(384.933 181.817)" fill="#fff"/>
    <path id="Path_11" data-name="Path 11" d="M431.471,265.382a27.469,27.469,0,0,0,0-49.673c12.889,4.026,21.96,13.629,21.96,24.837S444.36,261.357,431.471,265.382Z" transform="translate(336.021 179.622)" fill="#fff"/>
    <g id="Group_9" data-name="Group 9" transform="translate(670.514 456.797)">
      <path id="Path_12" data-name="Path 12" d="M219.685,357.219a.8.8,0,0,0,.876-.753.786.786,0,0,0-.886-.726H218.39v1.478Zm-.312-2.533a.651.651,0,1,0,.009-1.293h-.993v1.293Zm-2.454-2.462h2.7a1.75,1.75,0,0,1,1.938,1.577,1.24,1.24,0,0,1-.867,1.239,1.492,1.492,0,0,1,1.364,1.532,1.9,1.9,0,0,1-2.065,1.824h-3.068Z" transform="translate(-216.919 -351.986)" fill="#fff"/>
      <path id="Path_13" data-name="Path 13" d="M233.907,355.138a.867.867,0,0,0,.974-.859.808.808,0,0,0-.847-.814H232.72v1.673Zm-2.678-2.913h2.845a2.173,2.173,0,0,1,2.307,2.037,1.864,1.864,0,0,1-1.207,1.753l1.656,2.382h-1.7l-1.412-2.054h-1V358.4h-1.491Z" transform="translate(-224.761 -351.986)" fill="#fff"/>
      <rect id="Rectangle_1" data-name="Rectangle 1" width="1.5" height="6.172" transform="translate(13.248 0.239)" fill="#fff"/>
      <path id="Path_14" data-name="Path 14" d="M254.018,353.465h-1.841v-1.24h5.152v1.24h-1.811V358.4h-1.5Z" transform="translate(-236.24 -351.986)" fill="#fff"/>
      <rect id="Rectangle_2" data-name="Rectangle 2" width="1.5" height="6.172" transform="translate(22.269 0.239)" fill="#fff"/>
      <path id="Path_15" data-name="Path 15" d="M272.673,356.4a3.51,3.51,0,0,0,2.289.744c.77,0,1.188-.257,1.188-.612,0-.425-.438-.593-1.52-.947-1.042-.337-1.83-.85-1.83-1.841,0-1.107,1.1-1.736,2.425-1.736a3.843,3.843,0,0,1,1.822.416v1.355a2.776,2.776,0,0,0-1.764-.522c-.642,0-.975.2-.975.477,0,.461.828.647,1.559.913,1.276.46,1.782.938,1.782,1.885,0,1.036-.847,1.842-2.619,1.842a4.926,4.926,0,0,1-2.358-.558Z" transform="translate(-247.472 -351.868)" fill="#fff"/>
      <path id="Path_16" data-name="Path 16" d="M286.509,352.225h1.5v2.294h2.941v-2.294h1.5V358.4h-1.5v-2.638h-2.941V358.4h-1.5Z" transform="translate(-255.054 -351.986)" fill="#fff"/>
      <path id="Path_17" data-name="Path 17" d="M314.961,357.163a1.963,1.963,0,1,0-2.123-1.956,2.029,2.029,0,0,0,2.123,1.956m0-5.154a3.222,3.222,0,1,1-3.623,3.2,3.4,3.4,0,0,1,3.623-3.2" transform="translate(-268.66 -351.868)" fill="#fff"/>
      <path id="Path_18" data-name="Path 18" d="M333.046,355.138a.866.866,0,0,0,.973-.859.808.808,0,0,0-.848-.814h-1.314v1.673Zm-2.679-2.913h2.844a2.174,2.174,0,0,1,2.308,2.037,1.864,1.864,0,0,1-1.208,1.753l1.657,2.382h-1.7l-1.412-2.054h-1V358.4h-1.491Z" transform="translate(-279.088 -351.986)" fill="#fff"/>
      <path id="Path_19" data-name="Path 19" d="M345.4,353.465h-1.841v-1.24h5.153v1.24H346.9V358.4h-1.5Z" transform="translate(-286.316 -351.986)" fill="#fff"/>
      <path id="Path_20" data-name="Path 20" d="M357.48,352.225h1.5v2.294h2.941v-2.294h1.5V358.4h-1.5v-2.638H358.98V358.4h-1.5Z" transform="translate(-293.946 -351.986)" fill="#fff"/>
      <path id="Path_21" data-name="Path 21" d="M377.267,357.163a1.963,1.963,0,1,0-2.123-1.956,2.029,2.029,0,0,0,2.123,1.956m0-5.154a3.222,3.222,0,1,1-3.623,3.2,3.405,3.405,0,0,1,3.623-3.2" transform="translate(-302.804 -351.868)" fill="#fff"/>
      <path id="Path_22" data-name="Path 22" d="M395.157,357.157c1.715,0,2.182-.814,2.182-1.832,0-1.045-.466-1.86-2.192-1.86h-.973v3.692Zm-2.483-4.932h2.571c2.367,0,3.6,1.311,3.6,3.1,0,1.815-1.227,3.073-3.594,3.073h-2.581Z" transform="translate(-313.232 -351.986)" fill="#fff"/>
      <path id="Path_23" data-name="Path 23" d="M412.267,357.163a1.963,1.963,0,1,0-2.124-1.956,2.029,2.029,0,0,0,2.124,1.956m0-5.154a3.222,3.222,0,1,1-3.623,3.2,3.405,3.405,0,0,1,3.623-3.2" transform="translate(-321.984 -351.868)" fill="#fff"/>
      <path id="Path_24" data-name="Path 24" d="M427.673,351.7l4.559,3.746v-3.507h1.481v6.412l-4.559-3.737v3.5h-1.481Z" transform="translate(-332.412 -351.696)" fill="#fff"/>
      <path id="Path_25" data-name="Path 25" d="M445.4,353.465h-1.841v-1.24h5.152v1.24H446.9V358.4h-1.5Z" transform="translate(-341.116 -351.986)" fill="#fff"/>
      <rect id="Rectangle_3" data-name="Rectangle 3" width="1.5" height="6.172" transform="translate(108.773 0.239)" fill="#fff"/>
      <path id="Path_26" data-name="Path 26" d="M467.641,352.009a3.544,3.544,0,0,1,2.1.638v1.426a3.086,3.086,0,0,0-2.1-.824,1.954,1.954,0,1,0,0,3.888,3.084,3.084,0,0,0,2.1-.824v1.426a3.541,3.541,0,0,1-2.1.638,3.214,3.214,0,1,1,0-6.368" transform="translate(-352.312 -351.868)" fill="#fff"/>
      <path id="Path_27" data-name="Path 27" d="M488.213,356.4a3.51,3.51,0,0,0,2.289.744c.77,0,1.188-.257,1.188-.612,0-.425-.438-.593-1.519-.947-1.043-.337-1.832-.85-1.832-1.841,0-1.107,1.1-1.736,2.425-1.736a3.839,3.839,0,0,1,1.822.416v1.355a2.776,2.776,0,0,0-1.764-.522c-.642,0-.973.2-.973.477,0,.461.828.647,1.558.913,1.276.46,1.782.938,1.782,1.885,0,1.036-.847,1.842-2.62,1.842a4.926,4.926,0,0,1-2.358-.558Z" transform="translate(-365.588 -351.868)" fill="#fff"/>
      <path id="Path_28" data-name="Path 28" d="M504.962,357.163a1.963,1.963,0,1,0-2.124-1.956,2.029,2.029,0,0,0,2.124,1.956m0-5.154a3.222,3.222,0,1,1-3.623,3.2,3.405,3.405,0,0,1,3.623-3.2" transform="translate(-372.781 -351.868)" fill="#fff"/>
      <path id="Path_29" data-name="Path 29" d="M523.311,352.009a3.542,3.542,0,0,1,2.1.638v1.426a3.084,3.084,0,0,0-2.1-.824,1.954,1.954,0,1,0,0,3.888,3.082,3.082,0,0,0,2.1-.824v1.426a3.539,3.539,0,0,1-2.1.638,3.214,3.214,0,1,1,0-6.368" transform="translate(-382.819 -351.868)" fill="#fff"/>
      <rect id="Rectangle_4" data-name="Rectangle 4" width="1.5" height="6.172" transform="translate(144.203 0.239)" fill="#fff"/>
      <path id="Path_30" data-name="Path 30" d="M543.084,352.225h4.636v1.24h-3.136v1.16h2.932v1.213h-2.932v1.319h3.2v1.24h-4.705Z" transform="translate(-395.657 -351.986)" fill="#fff"/>
      <path id="Path_31" data-name="Path 31" d="M557.382,353.465h-1.841v-1.24h5.152v1.24h-1.811V358.4h-1.5Z" transform="translate(-402.483 -351.986)" fill="#fff"/>
      <path id="Path_32" data-name="Path 32" d="M570.728,356.1l-2.494-3.869h1.627l1.616,2.567,1.617-2.567h1.627l-2.494,3.869v2.3h-1.5Z" transform="translate(-409.439 -351.986)" fill="#fff"/>
    </g>
    <path id="Path_33" data-name="Path 33" d="M225.727,235.746q1.463.109,2.809.165t2.572.055q8.826,0,13.358-2.783A9.006,9.006,0,0,0,249,225.015a7.776,7.776,0,0,0-4.082-7.08q-4.084-2.434-11.872-2.434-1.463,0-3.115.091t-3.729.278q-.237,2.1-.354,4.462t-.118,5.273Zm-.33,3.171v7.449q0,5.568.142,9.017t.472,6.029q1.793.332,3.422.5a30.919,30.919,0,0,0,3.138.166q8.5,0,13.382-3.171a9.84,9.84,0,0,0,4.886-8.666q0-5.938-4.578-8.8t-14.067-2.858q-1.606,0-5.806.258-.614.037-.991.074m-8.26,25.887q.424-3.8.637-8.444t.212-12.391q0-10.657-.2-18.364t-.654-12.537q.662.037,1.757.073,2.229.075,2.943.075.9,0,4.842-.147t6.932-.149q12.534,0,18.373,2.8t5.84,8.851a9.611,9.611,0,0,1-4.06,8.021q-4.061,3.079-12.224,4.333,9.25.774,13.664,3.817a9.885,9.885,0,0,1,4.413,8.647A12.587,12.587,0,0,1,253,260.877q-6.619,3.928-19.428,3.928-2.4,0-6.17-.147t-5.18-.147q-.9,0-1.931.055t-3.155.24" transform="translate(453.475 181.151)" fill="#fff"/>
    <path id="Path_34" data-name="Path 34" d="M491.412,260.74a29.584,29.584,0,0,0,1.459-4,23.249,23.249,0,0,0,.766-4,15.668,15.668,0,0,0,6.646,6.619,20.878,20.878,0,0,0,10.055,2.379q6.572,0,10.525-3.024a9.655,9.655,0,0,0,3.953-8.075,7.447,7.447,0,0,0-2.274-5.661q-2.273-2.157-7.955-3.853l-8.2-2.581q-7.017-2.176-10.229-5.2a9.865,9.865,0,0,1-3.212-7.486q0-6.417,5.93-10.491t15.417-4.075a42.666,42.666,0,0,1,15.368,2.765q-.742,1.218-1.459,2.637a29.2,29.2,0,0,0-1.358,3.19,17.308,17.308,0,0,0-6.177-4.369,20.171,20.171,0,0,0-7.808-1.457q-5.583,0-8.869,2.526a8.17,8.17,0,0,0-3.287,6.841,6.836,6.836,0,0,0,2.348,5.291q2.346,2.122,7.881,3.927l8.2,2.656q7.214,2.287,10.3,5.347a10.494,10.494,0,0,1,3.089,7.781q0,7.34-6.621,11.837t-17.493,4.5a39.714,39.714,0,0,1-9.29-1.034,29,29,0,0,1-7.709-2.986" transform="translate(303.173 182.043)" fill="#fff"/>
  </g>
</svg>